<?xml version="1.0" standalone="no"?>
<!DOCTYPE svg PUBLIC "-//W3C//DTD SVG 20010904//EN"
 "http://www.w3.org/TR/2001/REC-SVG-20010904/DTD/svg10.dtd">
<svg version="1.0" xmlns="http://www.w3.org/2000/svg"
 width="536.000000pt" height="334.000000pt" viewBox="0 0 536.000000 334.000000"
 preserveAspectRatio="xMidYMid meet">

<g transform="translate(0.000000,334.000000) scale(0.100000,-0.100000)"
fill="#000000" stroke="none">
<path d="M1645 2978 c-74 -27 -119 -91 -145 -209 -25 -110 6 -427 66 -679 30
-128 37 -141 59 -119 15 15 13 30 -24 180 -23 90 -51 228 -63 306 -20 126 -21
154 -11 250 20 207 82 270 236 238 34 -7 63 -12 64 -11 2 1 -14 12 -35 24 -48
26 -108 35 -147 20z"/>
<path d="M2514 2429 c-46 -23 -57 -87 -21 -123 21 -21 34 -23 177 -29 272 -11
589 -81 763 -168 167 -84 254 -180 264 -289 13 -134 -68 -230 -261 -310 -52
-22 -148 -56 -213 -75 l-118 -36 95 5 c224 9 499 151 560 288 66 149 13 277
-165 403 -183 128 -367 193 -855 299 -91 20 -174 38 -185 41 -11 2 -30 -1 -41
-6z"/>
<path d="M860 2009 c-101 -66 -171 -153 -185 -232 -10 -50 32 -135 88 -181 42
-34 147 -96 162 -96 4 0 -15 24 -43 53 -78 83 -106 146 -107 237 0 90 19 132
91 203 56 54 55 56 -6 16z"/>
<path d="M4440 1897 c0 -30 -3 -34 -20 -30 -54 14 -92 -21 -92 -84 0 -59 44
-89 93 -63 13 8 19 7 19 0 0 -6 10 -10 23 -8 21 3 22 7 22 108 0 101 -1 105
-22 108 -20 3 -23 -1 -23 -31z m-2 -101 c4 -52 -21 -71 -52 -40 -21 20 -20 48
0 69 27 27 49 15 52 -29z"/>
<path d="M419 1892 c-31 -28 -34 -35 -34 -87 0 -52 3 -59 34 -87 30 -27 39
-30 83 -26 56 6 83 26 99 75 14 43 0 100 -31 128 -11 10 -41 20 -68 23 -44 4
-53 1 -83 -26z m115 -34 c34 -48 9 -128 -39 -128 -13 0 -31 10 -39 22 -34 48
-9 128 39 128 13 0 31 -10 39 -22z"/>
<path d="M3820 1900 c0 -15 7 -20 29 -20 36 0 40 -12 39 -100 -1 -63 0 -65 25
-68 l27 -3 0 85 0 86 30 0 c23 0 30 4 30 20 0 19 -7 20 -90 20 -83 0 -90 -1
-90 -20z"/>
<path d="M4550 1905 c0 -8 9 -15 20 -15 11 0 20 7 20 15 0 8 -9 15 -20 15 -11
0 -20 -7 -20 -15z"/>
<path d="M930 1868 c-53 -28 -62 -97 -18 -138 18 -17 33 -20 78 -18 48 3 55 6
58 25 3 21 1 22 -28 11 -23 -8 -38 -7 -56 1 -40 18 -27 31 31 31 54 0 55 1 55
28 0 16 -6 36 -13 45 -16 23 -76 31 -107 15z m54 -24 c28 -11 18 -34 -14 -34
-30 0 -43 23 -17 33 6 3 13 6 14 6 1 1 8 -2 17 -5z"/>
<path d="M1108 1874 c-10 -3 -18 -13 -18 -22 0 -14 8 -17 45 -14 26 2 45 0 45
-6 0 -12 -24 -22 -51 -22 -22 0 -59 -34 -59 -54 0 -31 29 -45 95 -44 l65 0 0
68 c0 47 -4 71 -15 80 -16 13 -80 21 -107 14z m70 -106 c-4 -28 -42 -37 -52
-13 -4 10 2 19 17 25 34 13 39 12 35 -12z"/>
<path d="M1351 1871 c-8 -5 -29 -7 -48 -4 l-33 6 0 -82 c0 -80 0 -81 25 -81
24 0 25 3 25 59 0 61 12 77 45 65 11 -5 15 -22 15 -65 0 -56 1 -59 25 -59 24
0 25 2 25 68 0 37 -4 72 -8 79 -10 16 -54 25 -71 14z"/>
<path d="M4731 1871 c-8 -5 -29 -7 -48 -4 l-33 6 0 -82 c0 -80 0 -81 25 -81
24 0 25 3 25 60 0 45 4 62 15 66 28 11 45 -16 45 -72 0 -51 1 -54 25 -54 24 0
25 2 25 65 0 52 -4 69 -20 85 -22 22 -37 25 -59 11z"/>
<path d="M1651 1827 l-22 -45 69 -148 c38 -82 117 -236 174 -343 98 -182 126
-219 144 -190 3 5 10 7 15 4 5 -3 6 1 3 10 -5 13 -9 13 -23 3 -11 -8 -10 -5 3
10 22 26 23 26 23 10 0 -7 4 -20 7 -29 5 -12 -1 -19 -24 -27 -23 -9 -29 -8
-23 1 4 6 -11 -4 -34 -23 -37 -31 -47 -60 -21 -60 6 0 5 -6 -2 -15 -8 -9 -9
-15 -2 -15 18 0 24 20 11 36 -10 12 -10 17 1 27 9 9 11 9 6 0 -11 -20 8 -21
27 0 19 19 18 19 -4 12 -21 -7 -22 -6 -11 8 14 16 42 13 42 -5 0 -13 30 -42
37 -35 3 3 26 -22 51 -56 147 -196 444 -437 570 -461 78 -14 161 33 203 117
44 86 60 270 38 434 -12 90 -123 532 -144 572 -13 26 -52 51 -79 51 -23 0 -46
-36 -46 -71 0 -20 18 -72 44 -124 91 -189 125 -338 133 -586 5 -167 5 -179
-16 -221 -45 -94 -139 -111 -248 -47 -93 55 -448 422 -448 463 0 12 43 56 55
56 4 0 7 6 7 14 0 8 -8 11 -19 8 -14 -3 -17 0 -12 12 3 9 10 14 14 11 5 -3 11
-1 15 5 4 6 11 8 16 4 5 -3 7 -10 4 -15 -3 -5 1 -6 9 -3 9 3 16 10 16 15 0 5
16 23 35 40 19 18 33 34 31 37 -3 2 7 15 22 28 15 13 22 24 15 24 -7 0 -10 7
-6 16 3 8 12 13 20 10 8 -3 11 -1 8 4 -3 6 1 13 9 16 14 5 13 9 -2 29 -9 13
-20 21 -23 19 -4 -2 -9 3 -13 11 -3 8 0 15 6 15 6 0 8 3 5 6 -4 4 -13 1 -22
-6 -8 -7 -15 -10 -15 -6 0 9 -68 -68 -68 -77 0 -5 -8 -14 -16 -20 -11 -9 -13
-16 -6 -27 9 -15 11 -13 14 13 1 6 8 12 17 11 9 -1 16 4 17 10 3 38 28 83 40
71 3 -2 -1 -11 -8 -20 -10 -12 -10 -15 1 -15 9 -1 8 -5 -5 -15 -11 -8 -14 -15
-8 -15 7 0 12 -5 12 -11 0 -5 -4 -8 -9 -5 -13 9 -21 -19 -9 -35 7 -11 8 -9 3
6 -5 15 -3 17 5 8 8 -7 9 -17 2 -29 -9 -15 -12 -14 -26 14 -9 18 -19 32 -22
32 -2 0 3 -15 12 -32 16 -30 16 -32 1 -19 -15 12 -17 11 -17 -8 0 -11 -6 -21
-12 -21 -10 0 -10 -2 0 -9 11 -7 11 -9 -2 -14 -11 -4 -16 -1 -16 11 0 13 -2
14 -9 3 -7 -11 -9 -11 -14 0 -4 10 -6 9 -6 -3 -1 -18 -21 -26 -21 -9 0 18 30
40 50 36 23 -4 27 17 6 34 -10 9 -16 8 -26 -4 -7 -8 -9 -15 -4 -15 4 0 1 -6
-7 -13 -34 -29 -64 -69 -49 -65 8 2 14 -3 12 -10 -1 -8 2 -11 8 -7 5 3 10 2
10 -3 0 -11 -49 -26 -58 -17 -3 3 2 5 11 5 9 0 17 5 17 10 0 14 -17 12 -27 -2
-14 -23 -13 -46 2 -58 11 -9 15 -10 15 -1 0 7 4 10 9 6 6 -3 8 4 6 15 -2 12 1
20 10 20 28 0 -6 -68 -36 -70 -6 0 -10 7 -170 310 -65 124 -142 277 -170 340
-28 63 -55 119 -59 123 -4 5 -17 -12 -29 -36z m650 -481 c-5 -12 -6 -26 -4
-33 2 -6 -1 -14 -6 -18 -7 -3 -8 0 -5 9 3 9 2 16 -3 16 -5 0 -9 9 -9 20 0 11
7 20 15 20 11 0 12 3 4 11 -5 5 -8 22 -5 37 6 27 6 26 13 -7 4 -19 4 -44 0
-55z m33 22 c-4 -6 -10 -5 -15 3 -14 22 -10 33 6 19 8 -7 12 -17 9 -22z m-110
-144 c-16 -13 -34 -22 -41 -19 -6 2 -14 1 -17 -3 -12 -11 -35 -10 -46 3 -8 9
-2 12 27 11 42 -2 77 10 68 24 -3 5 3 13 12 19 31 17 28 -9 -3 -35z m-129 -84
c-3 -5 -10 -10 -16 -10 -5 0 -9 5 -9 10 0 6 7 10 16 10 8 0 12 -4 9 -10z m-25
-74 c0 -14 -5 -28 -11 -32 -8 -4 -9 1 -4 17 7 21 6 22 -9 10 -18 -15 -22 -1
-4 17 19 19 28 14 28 -12z"/>
<path d="M4020 1790 c0 -79 0 -80 25 -80 24 0 25 3 25 54 0 56 8 66 51 66 12
0 19 7 19 20 0 22 -20 26 -51 10 -13 -7 -19 -7 -19 0 0 5 -11 10 -25 10 -25 0
-25 -1 -25 -80z"/>
<path d="M4157 1863 c-18 -18 -4 -30 34 -29 25 1 44 -4 46 -11 3 -9 -6 -13
-25 -13 -16 0 -40 -8 -52 -18 -49 -40 6 -101 66 -73 15 6 24 7 24 1 0 -6 9
-10 20 -10 18 0 20 7 20 70 0 58 -3 71 -19 80 -22 11 -104 14 -114 3z m88 -99
c0 -14 -7 -19 -25 -19 -30 0 -40 31 -13 38 28 7 38 2 38 -19z"/>
<path d="M4550 1800 c0 -65 2 -71 24 -82 26 -11 56 -5 56 12 0 5 -9 10 -20 10
-21 0 -21 2 -26 70 -1 22 -3 45 -3 50 -1 6 -8 10 -16 10 -12 0 -15 -14 -15
-70z"/>
<path d="M4867 1857 c-26 -18 -33 -81 -13 -112 20 -30 56 -41 85 -25 17 9 21
8 21 -4 0 -22 -37 -38 -71 -31 -25 6 -29 4 -29 -14 0 -19 6 -21 54 -21 47 0
57 4 75 26 17 22 21 41 21 110 l0 84 -63 0 c-35 0 -71 -6 -80 -13z m91 -59
c-3 -38 -6 -43 -27 -43 -33 0 -48 26 -33 59 8 18 19 26 37 26 25 0 26 -3 23
-42z"/>
<path d="M2335 1441 c-3 -5 -1 -12 5 -16 6 -4 8 -11 5 -16 -4 -5 -1 -9 4 -9
14 0 14 17 1 25 -6 4 -8 11 -5 16 4 5 4 9 1 9 -3 0 -7 -4 -11 -9z"/>
<path d="M1395 1300 c-3 -10 -8 -28 -10 -40 -2 -12 -7 -31 -11 -42 -4 -14 -2
-18 5 -14 6 4 11 14 11 22 0 9 5 12 11 8 8 -5 10 4 6 32 -3 21 -3 31 -1 22 3
-10 10 -18 15 -18 6 0 7 -6 3 -12 -5 -10 -3 -10 7 0 12 11 12 14 -1 22 -12 8
-13 12 -2 19 11 6 9 9 -7 14 -14 3 -22 -1 -26 -13z"/>
<path d="M1444 1242 c4 -7 2 -12 -5 -12 -7 0 -9 -3 -6 -7 4 -3 2 -12 -5 -20
-6 -7 -8 -16 -4 -20 3 -3 6 -1 6 6 0 7 4 10 9 7 5 -3 11 6 14 19 2 14 0 28 -6
32 -6 3 -7 1 -3 -5z"/>
<path d="M1373 1163 c-18 -7 -16 -58 2 -77 8 -8 12 -22 9 -30 -3 -9 -2 -16 4
-16 20 0 22 33 3 49 -18 16 -19 20 -5 45 19 39 18 42 -13 29z"/>
<path d="M1426 1128 c-21 -29 -20 -38 2 -38 14 0 15 2 2 10 -8 5 -10 10 -4 10
7 0 14 9 17 20 7 26 2 25 -17 -2z"/>
<path d="M1352 1022 c1 -40 5 -72 9 -72 10 0 5 127 -4 137 -5 4 -7 -25 -5 -65z"/>
<path d="M1405 1030 c-3 -5 -1 -18 4 -27 9 -16 10 -14 11 10 0 28 -5 34 -15
17z"/>
<path d="M1987 1012 c-9 -10 -17 -24 -17 -30 0 -7 -4 -12 -9 -12 -5 0 -12 -11
-15 -25 -4 -16 -11 -22 -21 -19 -8 4 -12 10 -9 15 3 5 10 6 16 3 6 -4 9 -1 6
7 -6 17 -34 19 -30 2 1 -7 -5 -13 -13 -13 -20 0 -8 28 16 35 21 7 25 20 8 31
-6 3 -16 1 -22 -6 -9 -10 -9 -11 3 -6 13 7 13 6 0 -6 -8 -8 -21 -20 -29 -28
-12 -13 -13 -13 -7 4 6 17 4 17 -10 5 -15 -12 -13 -15 22 -32 31 -15 34 -17
12 -14 -20 3 -25 0 -20 -11 4 -11 1 -13 -9 -8 -8 4 -6 1 4 -7 12 -10 14 -17 8
-22 -6 -3 -11 -1 -11 6 0 8 -4 8 -15 -1 -9 -7 -18 -10 -22 -6 -3 3 -2 6 4 6 6
0 13 10 15 23 8 40 -43 30 -104 -21 -14 -12 -15 -18 -6 -29 9 -11 9 -19 0 -34
-7 -11 -8 -19 -2 -19 5 0 10 5 10 10 0 6 7 10 16 10 13 0 14 3 5 14 -9 10 -8
15 2 19 15 6 18 -35 3 -45 -6 -4 0 -6 12 -5 17 1 22 6 18 20 -4 15 -2 16 10 6
11 -9 17 -9 29 1 8 7 13 16 10 20 -3 5 -1 11 4 14 5 4 13 2 16 -4 5 -8 11 -7
21 1 7 6 12 15 9 19 -3 4 8 13 24 20 36 14 91 70 70 70 -12 0 -12 2 1 9 8 6
17 8 21 5 14 -8 18 13 6 30 -12 16 -14 16 -30 -2z m26 -5 c3 -8 -1 -14 -8 -14
-7 0 -11 6 -8 14 3 7 6 13 8 13 2 0 5 -6 8 -13z m-47 -65 c-18 -16 -18 -16 -6
6 6 13 14 21 18 18 3 -4 -2 -14 -12 -24z m-37 -26 c-15 -13 -49 -25 -49 -17 0
5 8 12 18 14 24 6 36 8 31 3z m-136 -47 c7 -1 15 -1 19 -1 3 1 11 -5 18 -12
14 -18 -5 -32 -24 -17 -7 6 -16 7 -20 3 -4 -4 -7 -2 -6 3 5 21 -1 25 -19 15
-29 -15 -36 5 -9 25 20 14 23 14 26 0 2 -8 9 -16 15 -16z m24 16 c-6 -7 -15
-11 -19 -8 -14 8 -8 19 12 20 16 1 17 -1 7 -12z"/>
<path d="M1745 870 c-3 -6 1 -7 9 -4 18 7 21 14 7 14 -6 0 -13 -4 -16 -10z"/>
<path d="M1422 960 c0 -14 2 -19 5 -12 2 6 2 18 0 25 -3 6 -5 1 -5 -13z"/>
<path d="M1387 953 c-4 -3 -7 -16 -6 -27 0 -21 1 -21 9 -1 7 16 9 17 9 3 1 -9
-2 -24 -5 -33 -6 -14 -8 -14 -27 2 -20 18 -20 17 -13 -7 5 -14 8 -33 9 -42 1
-10 5 -18 10 -18 5 0 7 9 4 19 -3 12 1 22 10 25 11 5 13 2 9 -10 -3 -9 -9 -28
-12 -42 -5 -26 -5 -26 10 -8 10 12 14 32 11 53 -2 18 0 33 5 33 6 0 10 6 10
13 -1 17 -26 48 -33 40z"/>
<path d="M1430 911 c0 -5 5 -13 10 -16 6 -3 10 -2 10 4 0 5 -4 13 -10 16 -5 3
-10 2 -10 -4z"/>
<path d="M1419 875 c-6 -25 11 -76 31 -92 13 -11 13 -12 0 -13 -9 0 -22 6 -30
13 -8 6 -7 3 3 -9 9 -11 14 -24 10 -29 -5 -4 6 2 24 15 29 21 33 21 47 7 15
-14 14 -16 -4 -22 -20 -6 -28 -35 -10 -35 6 0 10 6 10 14 0 8 9 18 21 21 l21
7 -21 15 c-30 20 -16 35 27 29 l37 -5 -34 17 c-24 12 -35 14 -38 6 -2 -7 -13
-9 -25 -6 -17 4 -20 2 -15 -11 4 -10 2 -17 -3 -17 -6 0 -10 9 -10 20 0 11 -5
20 -11 20 -5 0 -7 5 -4 10 5 8 11 7 21 -1 11 -9 14 -8 14 5 0 10 -4 14 -10 11
-9 -6 -15 8 -11 29 1 5 -5 6 -13 3 -8 -3 -17 -1 -19 6 -2 7 -6 3 -8 -8z m23
-37 c-7 -7 -12 -8 -12 -2 0 14 12 26 19 19 2 -3 -1 -11 -7 -17z"/>
<path d="M1700 850 c0 -5 5 -10 11 -10 5 0 7 5 4 10 -3 6 -8 10 -11 10 -2 0
-4 -4 -4 -10z"/>
<path d="M1669 836 c-7 -7 -61 -18 -84 -17 -16 0 -17 -2 -5 -9 8 -5 18 -6 22
-4 4 3 8 0 8 -6 0 -6 -11 -15 -25 -22 -19 -8 -28 -8 -40 2 -8 7 -18 10 -21 7
-10 -9 37 -29 57 -24 10 3 22 1 25 -4 3 -5 -6 -9 -19 -9 -14 0 -37 -6 -51 -14
-22 -11 -24 -15 -12 -25 12 -10 23 -10 53 0 21 7 42 17 48 21 13 11 27 10 20
-2 -3 -6 15 -2 42 8 28 11 47 24 45 32 -2 8 3 10 13 7 8 -4 15 -2 15 3 0 6 -9
10 -21 10 -15 0 -19 -5 -15 -16 3 -9 2 -12 -5 -9 -5 4 -16 2 -23 -4 -7 -6 -22
-8 -31 -4 -13 4 -16 3 -11 -6 5 -8 -3 -7 -23 4 -18 9 -29 20 -25 26 3 6 11 4
18 -6 14 -19 47 -10 39 11 -3 8 -9 14 -15 14 -5 0 -7 -4 -3 -9 3 -5 1 -12 -5
-16 -5 -3 -10 -2 -10 4 0 5 -2 16 -5 24 -4 10 2 13 23 12 18 -1 29 3 29 12 0
14 -1 15 -8 9z m-43 -95 c-3 -4 -18 -11 -33 -14 -16 -3 -37 -9 -48 -13 -16 -6
-18 -4 -8 6 7 7 29 16 50 20 21 4 39 8 41 9 2 0 1 -3 -2 -8z"/>
<path d="M1688 803 c-24 -6 -23 -23 2 -23 11 0 20 7 20 15 0 8 -1 14 -2 14 -2
-1 -11 -3 -20 -6z"/>
<path d="M1460 750 c-10 -6 -12 -12 -5 -19 7 -7 14 -4 23 9 13 21 6 25 -18 10z"/>
</g>
</svg>
