<?xml version="1.0" standalone="no"?>
<!DOCTYPE svg PUBLIC "-//W3C//DTD SVG 20010904//EN"
 "http://www.w3.org/TR/2001/REC-SVG-20010904/DTD/svg10.dtd">
<svg version="1.0" xmlns="http://www.w3.org/2000/svg"
 width="536.000000pt" height="334.000000pt" viewBox="0 0 536.000000 334.000000"
 preserveAspectRatio="xMidYMid meet">

<g transform="translate(0.000000,334.000000) scale(0.100000,-0.100000)"
fill="#000000" stroke="none">
<path d="M1608 2959 c-69 -36 -118 -170 -118 -319 0 -104 39 -380 76 -542 32
-138 37 -149 59 -127 14 14 13 24 -10 110 -14 52 -39 164 -57 249 -26 130 -32
178 -32 295 -1 270 63 360 230 322 35 -8 64 -13 64 -11 0 2 -18 13 -40 24 -50
26 -123 26 -172 -1z"/>
<path d="M2508 2420 c-30 -23 -44 -70 -29 -98 17 -31 58 -40 211 -46 161 -5
272 -22 466 -71 223 -56 365 -125 463 -225 85 -87 105 -189 55 -288 -56 -112
-158 -168 -509 -277 l-50 -15 87 4 c144 8 354 87 465 175 105 83 147 238 93
343 -47 93 -178 196 -353 278 -158 74 -263 104 -661 191 -103 22 -194 43 -200
45 -7 3 -24 -4 -38 -16z"/>
<path d="M855 2004 c-217 -144 -235 -313 -47 -437 112 -74 122 -76 69 -16
-102 116 -132 237 -84 342 14 30 43 73 66 96 23 23 40 41 38 41 -1 0 -20 -12
-42 -26z"/>
<path d="M4440 1896 c0 -34 -1 -35 -34 -29 -48 8 -76 -22 -76 -82 0 -36 5 -47
25 -61 17 -11 33 -14 52 -9 16 5 38 7 51 6 22 -2 22 0 22 103 0 99 -1 106 -20
106 -16 0 -20 -7 -20 -34z m0 -100 c0 -31 -5 -46 -16 -50 -21 -8 -20 -8 -38
10 -31 30 -9 84 35 84 16 0 19 -7 19 -44z"/>
<path d="M440 1907 c-36 -17 -64 -79 -56 -122 11 -54 44 -86 96 -92 88 -9 143
60 119 150 -17 64 -96 96 -159 64z m94 -49 c33 -46 9 -128 -36 -128 -35 0 -58
29 -58 73 0 69 60 104 94 55z"/>
<path d="M3820 1900 c0 -16 7 -20 35 -20 l35 0 0 -85 c0 -78 2 -85 20 -85 18
0 20 7 20 85 l0 85 35 0 c28 0 35 4 35 20 0 19 -7 20 -90 20 -83 0 -90 -1 -90
-20z"/>
<path d="M4550 1905 c0 -8 9 -15 20 -15 11 0 20 7 20 15 0 8 -9 15 -20 15 -11
0 -20 -7 -20 -15z"/>
<path d="M934 1866 c-35 -15 -44 -32 -44 -81 0 -44 38 -75 91 -75 50 0 69 8
69 31 0 16 -3 18 -19 9 -31 -16 -66 -12 -86 10 -18 20 -17 20 11 21 16 1 44 0
62 -1 29 -1 32 1 32 27 0 36 -9 49 -43 62 -35 13 -35 13 -73 -3z m64 -38 c3
-14 -3 -18 -27 -18 -29 0 -41 17 -24 34 13 13 48 1 51 -16z"/>
<path d="M1118 1872 c-18 -2 -28 -9 -28 -20 0 -14 8 -17 45 -14 36 3 45 1 45
-12 0 -11 -9 -16 -33 -16 -56 0 -88 -40 -61 -78 12 -17 24 -20 79 -20 l65 1 0
68 c0 41 -5 70 -12 77 -15 11 -63 18 -100 14z m67 -92 c9 -15 -14 -40 -36 -40
-27 0 -35 21 -14 37 22 16 41 17 50 3z"/>
<path d="M1355 1871 c-11 -5 -35 -6 -52 -3 l-33 5 0 -82 c0 -80 0 -81 25 -81
24 0 25 3 25 59 0 51 3 61 20 66 32 10 40 -3 40 -66 0 -56 1 -59 25 -59 24 0
25 2 25 69 0 61 -3 72 -22 85 -25 18 -25 18 -53 7z"/>
<path d="M1657 1837 c-30 -58 -29 -60 81 -282 112 -227 233 -446 249 -452 11
-4 9 -11 -9 -31 -13 -14 -17 -22 -10 -18 6 4 12 2 12 -3 0 -11 -15 -15 -34
-12 -5 1 -3 -5 4 -14 13 -15 15 -15 25 -1 7 9 16 12 20 8 5 -4 5 1 2 11 -4 9
-2 17 3 17 6 0 10 -7 10 -15 0 -8 5 -15 10 -15 14 0 13 23 -2 38 -18 18 -17
50 3 68 17 16 16 21 -37 118 -83 151 -294 577 -294 592 0 26 -17 22 -33 -9z"/>
<path d="M4020 1790 c0 -78 1 -80 25 -80 22 0 24 4 27 58 3 53 5 57 30 60 25
3 45 28 33 40 -3 4 -19 1 -35 -5 -17 -6 -30 -7 -30 -2 0 5 -11 9 -25 9 -25 0
-25 -1 -25 -80z"/>
<path d="M4167 1863 c-17 -17 -4 -28 35 -28 55 0 61 -21 8 -28 -47 -6 -70 -22
-70 -48 0 -31 30 -52 64 -45 17 4 43 6 59 6 26 0 27 1 27 59 0 73 -15 91 -74
91 -23 0 -46 -3 -49 -7z m81 -95 c-4 -31 -58 -40 -58 -9 0 20 12 29 43 30 14
1 18 -5 15 -21z"/>
<path d="M4550 1800 c0 -58 3 -71 19 -80 29 -15 51 -12 51 7 0 9 -3 13 -7 10
-17 -17 -33 19 -33 74 0 46 -3 59 -15 59 -12 0 -15 -14 -15 -70z"/>
<path d="M4650 1788 c0 -77 1 -79 23 -76 19 3 23 10 27 63 5 56 7 60 30 60 24
0 25 -3 28 -62 3 -59 4 -63 27 -63 23 0 25 3 25 54 0 30 -4 66 -10 80 -9 23
-13 25 -80 24 l-70 0 0 -80z"/>
<path d="M4860 1843 c-11 -14 -20 -34 -20 -44 0 -59 51 -101 97 -80 18 8 23 7
23 -3 0 -25 -29 -39 -66 -33 -29 5 -35 3 -32 -11 5 -26 87 -29 119 -3 22 17
24 28 27 109 l4 90 -66 1 c-59 0 -67 -2 -86 -26z m98 -45 c-3 -37 -7 -44 -27
-46 -26 -4 -41 12 -41 44 0 27 19 44 48 44 21 0 23 -4 20 -42z"/>
<path d="M3406 1732 c-3 -4 4 -9 15 -9 23 -2 25 3 4 10 -8 4 -16 3 -19 -1z"/>
<path d="M2660 1650 c-30 -30 -25 -68 24 -171 85 -180 120 -321 135 -544 13
-215 -6 -297 -79 -336 -56 -30 -107 -25 -178 19 -100 61 -193 145 -309 280
-128 150 -153 177 -173 185 -11 5 -12 8 -2 13 6 3 12 12 12 20 0 9 4 13 9 9 5
-3 12 -1 16 5 4 6 10 8 15 5 20 -12 49 14 44 40 -3 19 -1 23 11 18 11 -4 18 1
22 15 3 12 11 18 18 16 15 -6 38 29 27 41 -4 5 1 5 10 2 10 -3 17 -3 16 1 -4
14 14 52 22 47 5 -3 12 5 16 17 4 13 2 24 -5 26 -6 2 -11 8 -11 13 0 6 4 7 10
4 6 -4 7 1 4 12 -5 17 -5 17 9 0 12 -14 17 -15 23 -5 16 24 12 39 -12 55 -19
12 -27 13 -39 3 -8 -7 -15 -18 -15 -26 0 -15 -34 -36 -44 -27 -6 6 -9 -11 -3
-23 1 -3 -6 -10 -15 -15 -10 -5 -15 -18 -13 -29 2 -12 0 -18 -6 -14 -10 6 -57
-40 -78 -76 -7 -12 -5 -16 11 -17 17 -2 18 0 6 15 -12 16 -11 16 7 1 11 -9 28
-15 38 -14 9 2 17 -1 17 -6 0 -5 -11 -7 -25 -5 -14 3 -25 1 -25 -3 0 -4 -10
-7 -22 -7 -14 1 -23 -5 -23 -14 0 -9 -9 -15 -21 -14 -15 0 -21 -6 -20 -20 1
-12 6 -24 11 -28 6 -5 -6 -5 -25 -2 l-35 7 28 -22 c28 -23 36 -55 16 -66 -6
-4 -10 -1 -8 6 3 29 -1 49 -12 49 -6 0 -8 -11 -5 -27 3 -16 3 -33 -2 -39 -10
-15 -79 -27 -87 -15 -3 6 -12 8 -21 4 -8 -3 -13 -8 -10 -11 5 -4 -43 -47 -54
-47 -3 0 -15 -8 -28 -17 -17 -11 -20 -17 -10 -21 11 -5 -17 -9 -38 -6 -8 1
-24 -23 -24 -36 0 -5 5 -3 10 5 7 12 9 10 7 -8 -1 -22 -17 -32 -17 -11 0 5 -4
7 -10 4 -6 -4 -7 1 -3 11 8 22 -13 10 -26 -14 -9 -18 -9 -18 71 -24 15 -1 24
-6 22 -10 -3 -4 -1 -8 5 -8 25 0 18 19 -12 29 -24 9 -28 14 -18 20 7 5 10 14
7 20 -5 7 1 11 16 11 19 0 20 -2 8 -10 -13 -9 -12 -12 4 -25 11 -8 22 -12 25
-9 3 3 -1 9 -8 13 -9 6 -10 11 -3 15 6 4 9 13 6 20 -3 8 2 16 13 19 17 4 17 5
0 6 -10 0 -15 6 -12 11 4 6 10 8 15 5 5 -3 20 -1 33 4 19 7 28 6 37 -5 8 -9 9
-14 2 -14 -6 0 -13 6 -15 13 -3 7 -6 5 -6 -5 -1 -10 5 -18 12 -18 14 0 57 44
57 58 -1 4 -10 -4 -20 -17 -15 -17 -20 -19 -20 -8 0 9 10 23 22 31 25 18 42
21 33 6 -3 -5 2 -10 11 -10 10 0 14 3 11 7 -4 3 2 13 14 21 11 8 21 12 23 11
1 -2 28 -38 61 -79 124 -158 340 -346 472 -411 143 -72 254 -19 305 144 19 61
23 94 22 217 0 167 -6 201 -80 485 -66 253 -67 257 -103 278 -37 22 -47 21
-71 -3z m-334 -225 c4 -8 9 -13 13 -10 4 2 8 -2 8 -10 0 -12 -3 -12 -16 -2 -9
6 -20 17 -24 22 -5 6 -7 3 -4 -7 3 -9 0 -24 -7 -34 -11 -15 -11 -20 1 -32 12
-12 8 -17 -27 -34 -29 -14 -39 -25 -35 -36 4 -12 3 -13 -10 -2 -12 10 -15 10
-15 -4 0 -9 5 -16 11 -16 5 0 8 -4 5 -9 -4 -5 0 -11 6 -14 7 -3 4 -5 -7 -5
-11 1 -27 -1 -35 -3 -8 -2 -14 1 -15 8 0 6 -4 15 -9 20 -5 5 -6 3 -2 -4 4 -7
2 -13 -4 -13 -7 0 -10 6 -7 13 2 6 14 12 25 11 17 0 19 2 11 13 -6 7 -9 14 -5
14 3 1 11 3 16 4 6 1 15 3 20 4 7 1 7 8 -1 22 -8 15 -8 19 0 15 6 -4 11 -3 11
1 0 5 10 10 22 10 17 2 19 0 8 -7 -8 -5 -12 -11 -9 -14 2 -3 11 -1 18 3 18 12
5 31 -22 32 -21 1 -21 1 2 8 24 6 34 19 45 54 7 21 25 22 32 2z m-160 -258 c1
-12 -3 -14 -19 -8 -30 11 -34 32 -6 28 12 -2 23 -11 25 -20z m-26 -18 c13 -9
12 -10 -2 -5 -10 3 -20 1 -23 -3 -3 -5 -15 -7 -27 -3 -21 5 -21 6 -2 13 27 11
37 10 54 -2z m-199 -163 c-6 -8 -22 -16 -34 -20 -21 -5 -21 -4 3 14 29 23 48
26 31 6z"/>
<path d="M1408 1298 c7 -30 32 -76 33 -63 0 6 2 18 4 29 2 10 -1 28 -6 40 -8
18 -9 16 -4 -9 l5 -30 -15 28 c-19 33 -25 35 -17 5z"/>
<path d="M1388 1266 c-2 -19 -1 -33 3 -30 4 2 9 -11 13 -28 6 -30 7 -31 21
-12 11 15 15 16 15 4 1 -8 6 -4 11 9 5 13 7 26 4 29 -3 3 -5 0 -5 -6 0 -7 -9
-12 -20 -12 -12 0 -17 5 -14 13 2 7 -2 26 -9 41 l-15 27 -4 -35z"/>
<path d="M1385 1181 c3 -5 1 -12 -5 -16 -17 -10 -11 -25 9 -25 27 0 35 17 17
35 -16 17 -30 20 -21 6z"/>
<path d="M1420 1126 c0 -9 5 -16 10 -16 6 0 10 4 10 9 0 6 -4 13 -10 16 -5 3
-10 -1 -10 -9z"/>
<path d="M1372 1116 c-10 -17 -12 -39 -6 -68 6 -29 24 -39 24 -13 0 8 5 15 11
15 6 0 9 -6 6 -13 -2 -7 -1 -33 3 -59 3 -26 3 -45 -2 -42 -4 3 -8 -4 -8 -15 0
-12 5 -21 11 -21 7 0 9 -10 7 -25 -3 -13 -2 -24 1 -23 20 2 27 -5 27 -26 0
-15 -5 -22 -13 -19 -13 5 -17 -8 -14 -36 2 -8 -3 -10 -11 -5 -7 4 -10 3 -5 -1
11 -12 47 -17 47 -6 0 5 -6 11 -12 14 -7 2 -9 8 -5 13 5 5 15 0 24 -11 11 -14
17 -16 20 -7 6 14 23 16 23 2 0 -5 -11 -12 -25 -16 -26 -6 -32 -18 -16 -28 5
-4 12 0 14 6 3 8 6 6 6 -4 1 -10 6 -18 12 -18 7 0 9 9 6 21 -3 12 0 22 9 26
11 4 12 9 3 19 -15 18 -2 18 16 0 12 -12 12 -15 0 -19 -7 -3 -13 -14 -12 -25
1 -15 8 -18 41 -16 23 1 43 2 46 4 3 1 9 2 14 1 5 -1 12 3 16 9 4 6 16 12 28
13 11 0 18 5 16 9 -3 4 0 8 5 8 6 0 11 -5 11 -11 0 -6 7 -3 16 5 8 9 19 14 24
11 4 -3 6 4 3 15 -6 21 -28 22 -28 2 0 -7 -3 -12 -7 -12 -5 0 -15 0 -23 0 -8
0 -15 7 -15 16 0 8 5 12 10 9 6 -4 10 -3 9 2 -1 4 -1 15 0 23 1 13 2 13 12 0
9 -13 10 -13 6 0 -2 8 -12 17 -22 18 -10 2 -15 0 -11 -6 3 -6 -1 -18 -10 -26
-8 -9 -12 -16 -8 -16 3 0 1 -7 -6 -15 -7 -9 -18 -14 -23 -12 -16 5 -17 37 -1
37 9 0 13 4 9 9 -3 6 -14 9 -25 8 -10 -1 -16 -5 -14 -9 7 -11 -41 -21 -65 -13
-12 3 -21 14 -21 23 0 13 -2 13 -14 -3 -8 -11 -12 -23 -10 -27 3 -5 1 -8 -5
-8 -18 0 -21 18 -5 34 13 14 13 16 1 16 -10 0 -14 8 -13 24 2 17 -1 23 -10 19
-8 -3 -14 0 -14 6 0 6 4 11 10 11 6 0 6 10 -1 28 -6 15 -11 62 -12 105 l-2 78
-20 -25 c-37 -46 -50 -25 -16 23 16 23 17 28 5 28 -8 0 -18 -5 -22 -11z m218
-336 c-8 -5 -22 -9 -30 -9 -10 0 -8 3 5 9 27 12 43 12 25 0z m49 -20 c12 6 21
8 21 5 0 -9 -90 -48 -97 -41 -3 3 5 10 18 15 18 8 20 10 6 10 -10 1 -27 -4
-39 -10 -19 -10 -38 -5 -25 7 12 12 72 21 84 12 7 -6 20 -5 32 2z"/>
<path d="M2110 1110 c-9 -6 -10 -10 -3 -10 6 0 15 5 18 10 8 12 4 12 -15 0z"/>
<path d="M1351 1018 c-1 -15 5 -31 12 -35 8 -4 19 -17 26 -28 10 -18 11 -17 9
10 -2 17 -7 28 -11 25 -5 -3 -15 9 -22 25 l-13 30 -1 -27z"/>
<path d="M1351 958 c0 -7 4 -22 9 -33 7 -17 9 -15 9 13 1 17 -3 32 -9 32 -5 0
-10 -6 -9 -12z"/>
<path d="M1885 931 c3 -5 -3 -12 -13 -15 -10 -4 -19 -13 -19 -20 0 -9 7 -12
16 -9 13 5 14 3 4 -8 -24 -25 -13 -28 12 -4 13 14 29 25 35 25 5 0 1 9 -10 20
-21 21 -35 27 -25 11z m25 -25 c0 -2 -7 -7 -16 -10 -8 -3 -12 -2 -9 4 6 10 25
14 25 6z"/>
<path d="M1385 881 c3 -47 2 -51 -10 -35 -13 17 -13 15 -3 -12 6 -18 16 -31
22 -30 21 3 36 17 36 34 -1 13 -4 12 -13 -6 -12 -21 -13 -20 -14 15 -1 21 -6
49 -12 63 -8 20 -9 15 -6 -29z"/>
<path d="M1635 820 c3 -5 8 -10 11 -10 2 0 4 5 4 10 0 6 -5 10 -11 10 -5 0 -7
-4 -4 -10z"/>
<path d="M1751 816 c-7 -9 -10 -23 -7 -32 5 -14 10 -13 31 10 27 29 34 46 11
27 -11 -9 -15 -9 -18 0 -2 7 -8 6 -17 -5z m19 -10 c0 -3 -4 -8 -10 -11 -5 -3
-10 -1 -10 4 0 6 5 11 10 11 6 0 10 -2 10 -4z"/>
<path d="M1538 803 c7 -3 16 -2 19 1 4 3 -2 6 -13 5 -11 0 -14 -3 -6 -6z"/>
</g>
</svg>
